<?xml version="1.0" encoding="utf-8"?>
<!-- Generator: Adobe Illustrator 24.2.3, SVG Export Plug-In . SVG Version: 6.00 Build 0)  -->
<svg version="1.1" xmlns="http://www.w3.org/2000/svg" xmlns:xlink="http://www.w3.org/1999/xlink" x="0px" y="0px"
	 viewBox="0 0 612 792" style="enable-background:new 0 0 612 792;" xml:space="preserve">
<style type="text/css">
	.st0{fill:#EF4852;}
	.st1{fill:#89A675;}
	.st2{fill:#939598;}
	.st3{fill:#FFFFFF;}
	.st4{font-family:'ProFontWindows';}
	.st5{font-size:12px;}
	.st6{fill:#EDDBEB;}
	.st7{fill:none;}
	.st8{fill:#6B4C61;}
	.st9{fill:#590B0F;}
	.st10{font-size:10px;}
	.st11{fill:#51464F;}
	.st12{font-size:11px;}
	.st13{fill:none;stroke:#FFFFFF;stroke-miterlimit:10;}
	.st14{fill:#FFFFFF;stroke:#FFFFFF;stroke-miterlimit:10;}
	.st15{font-size:7.9159px;}
	.st16{fill:#50554F;}
	.st17{font-size:14px;}
</style>
<g id="Layer_2">
	<rect x="-10.81" y="-3.58" class="st0" width="654.62" height="564.27"/>
	<rect x="-10.81" y="560.69" class="st1" width="654.62" height="181.45"/>
	<rect x="-10.81" y="742.14" class="st2" width="654.62" height="49.86"/>
	<text transform="matrix(1 0 0 1 21.9663 521.593)"><tspan x="0" y="0" class="st3 st4 st5">REC button... Dump the current preset / Long press... Initialize preset</tspan><tspan x="0" y="9" class="st3 st4 st5">Mode button... Toggle MIDI receiving</tspan></text>
	<text transform="matrix(1 0 0 1 21.9663 724.2215)"><tspan x="0" y="0" class="st3 st4 st5">REC button... Previous sequencer bank</tspan><tspan x="0" y="9" class="st3 st4 st5">Mode button... Next sequencer bank</tspan></text>
</g>
<g id="Layer_1">
	<text transform="matrix(1 0 0 1 57.343 41.6858)" class="st3 st4 st5">QUN pocket synthesizer parameter sheet</text>
	<text transform="matrix(1 0 0 1 26.4859 87.8)" class="st3 st4 st5">OSC1</text>
	<rect x="61.21" y="73.83" class="st6" width="59.14" height="21.09"/>
	<rect x="61.21" y="79.49" class="st7" width="59.14" height="22.63"/>
	<text transform="matrix(1 0 0 1 75.7861 86.4818)" class="st8 st4 st5">Shape</text>
	<rect x="196.99" y="73.83" class="st6" width="59.14" height="21.09"/>
	<rect x="196.99" y="79.49" class="st7" width="59.14" height="22.63"/>
	<text transform="matrix(1 0 0 1 214.5576 86.4818)" class="st8 st4 st5">Tune</text>
	<rect x="264.87" y="73.83" class="st6" width="59.14" height="21.09"/>
	<rect x="264.87" y="79.49" class="st7" width="59.14" height="22.63"/>
	<text transform="matrix(1 0 0 1 276.4433 86.4818)" class="st8 st4 st5">Octave</text>
	<rect x="332.76" y="73.83" class="st9" width="59.14" height="21.09"/>
	<rect x="332.76" y="79.49" class="st7" width="59.14" height="22.63"/>
	<text transform="matrix(1 0 0 1 341.329 86.4818)" class="st3 st4 st5">ModTune</text>
	<rect x="400.64" y="73.83" class="st9" width="59.14" height="21.09"/>
	<rect x="400.64" y="79.49" class="st7" width="59.14" height="22.63"/>
	<text transform="matrix(1 0 0 1 406.2147 86.4818)" class="st3 st4 st5">ModWidth</text>
	<rect x="468.53" y="73.83" class="st9" width="59.14" height="21.09"/>
	<rect x="468.53" y="79.49" class="st7" width="59.14" height="22.63"/>
	<text transform="matrix(1 0 0 1 474.1004 86.4818)" class="st3 st4 st5">LFO Tune</text>
	<rect x="539.47" y="73.83" class="st9" width="59.14" height="21.09"/>
	<rect x="539.47" y="79.49" class="st7" width="59.14" height="22.63"/>
	<text transform="matrix(1 0 0 1 542.0431 86.4818)" class="st3 st4 st5">LFO Width</text>
	<rect x="129.1" y="73.83" class="st6" width="59.14" height="21.09"/>
	<rect x="129.1" y="79.49" class="st7" width="59.14" height="22.63"/>
	<text transform="matrix(1 0 0 1 131.1718 85.3158)" class="st8 st4 st10">Pulse Width</text>
	<text transform="matrix(1 0 0 1 26.4859 132.5429)" class="st3 st4 st5">OSC2</text>
	<rect x="61.21" y="118.57" class="st6" width="59.14" height="21.09"/>
	<rect x="61.21" y="124.23" class="st7" width="59.14" height="22.63"/>
	<text transform="matrix(1 0 0 1 75.7861 131.2246)" class="st8 st4 st5">Shape</text>
	<rect x="196.99" y="118.57" class="st6" width="59.14" height="21.09"/>
	<rect x="196.99" y="124.23" class="st7" width="59.14" height="22.63"/>
	<text transform="matrix(1 0 0 1 214.5576 131.2246)" class="st8 st4 st5">Tune</text>
	<rect x="264.87" y="118.57" class="st6" width="59.14" height="21.09"/>
	<rect x="264.87" y="124.23" class="st7" width="59.14" height="22.63"/>
	<text transform="matrix(1 0 0 1 276.4433 131.2246)" class="st8 st4 st5">Octave</text>
	<rect x="332.76" y="118.57" class="st9" width="59.14" height="21.09"/>
	<rect x="332.76" y="124.23" class="st7" width="59.14" height="22.63"/>
	<text transform="matrix(1 0 0 1 341.329 131.2246)" class="st3 st4 st5">ModTune</text>
	<rect x="400.64" y="118.57" class="st9" width="59.14" height="21.09"/>
	<rect x="400.64" y="124.23" class="st7" width="59.14" height="22.63"/>
	<text transform="matrix(1 0 0 1 406.2147 131.2246)" class="st3 st4 st5">ModWidth</text>
	<rect x="468.53" y="118.57" class="st9" width="59.14" height="21.09"/>
	<rect x="468.53" y="124.23" class="st7" width="59.14" height="22.63"/>
	<text transform="matrix(1 0 0 1 474.1004 131.2246)" class="st3 st4 st5">LFO Tune</text>
	<rect x="539.47" y="118.57" class="st9" width="59.14" height="21.09"/>
	<rect x="539.47" y="124.23" class="st7" width="59.14" height="22.63"/>
	<text transform="matrix(1 0 0 1 542.0431 131.2246)" class="st3 st4 st5">LFO Width</text>
	<rect x="129.1" y="118.57" class="st6" width="59.14" height="21.09"/>
	<rect x="129.1" y="124.23" class="st7" width="59.14" height="22.63"/>
	<text transform="matrix(1 0 0 1 131.1718 130.0586)" class="st8 st4 st10">Pulse Width</text>
	<rect x="37.8" y="24.71" class="st3" width="150.44" height="2.31"/>
	<rect x="37.8" y="104.43" class="st3" width="560.81" height="4.63"/>
	<text transform="matrix(1 0 0 1 26.486 177.2858)" class="st3 st4 st5">MIX</text>
	<rect x="61.21" y="163.31" class="st6" width="59.14" height="21.09"/>
	<rect x="61.21" y="168.97" class="st7" width="59.14" height="15.43"/>
	<text transform="matrix(1 0 0 1 81.7861 175.9675)" class="st11 st4 st5">MIX</text>
	<rect x="196.99" y="163.31" class="st6" width="59.14" height="21.09"/>
	<rect x="196.99" y="168.97" class="st7" width="59.14" height="15.43"/>
	<text transform="matrix(1 0 0 1 208.5576 175.9675)" class="st11 st4 st5">VOLUME</text>
	<rect x="264.87" y="163.31" class="st6" width="59.14" height="21.09"/>
	<rect x="264.87" y="167.31" class="st7" width="59.14" height="21.09"/>
	<text transform="matrix(1 0 0 1 274.4433 173.1443)"><tspan x="0" y="0" class="st11 st4 st10">AUDIO IN </tspan><tspan x="10" y="8" class="st11 st4 st10">GAIN</tspan></text>
	<rect x="332.76" y="163.31" class="st9" width="59.14" height="21.09"/>
	<rect x="332.76" y="168.97" class="st7" width="59.14" height="15.43"/>
	<text transform="matrix(1 0 0 1 334.829 174.8015)" class="st3 st4 st10">Effect Type</text>
	<rect x="400.64" y="163.31" class="st9" width="59.14" height="21.09"/>
	<rect x="400.64" y="166.31" class="st7" width="59.14" height="22.19"/>
	<text transform="matrix(1 0 0 1 415.2147 172.1443)"><tspan x="0" y="0" class="st3 st4 st10">Effect </tspan><tspan x="2.5" y="8" class="st3 st4 st10">speed</tspan></text>
	<rect x="468.53" y="163.31" class="st9" width="59.14" height="21.09"/>
	<rect x="468.53" y="166.31" class="st7" width="59.14" height="22.19"/>
	<text transform="matrix(1 0 0 1 481.6004 172.7273)"><tspan x="0" y="0" class="st3 st4 st12">Effect </tspan><tspan x="2.75" y="8" class="st3 st4 st12">Depth</tspan></text>
	<rect x="539.47" y="163.31" class="st9" width="59.14" height="21.09"/>
	<rect x="539.47" y="166.31" class="st7" width="59.14" height="20.09"/>
	<text transform="matrix(1 0 0 1 554.0431 172.1443)"><tspan x="0" y="0" class="st3 st4 st10">Effect </tspan><tspan x="-5" y="8" class="st3 st4 st10">feedback</tspan></text>
	<rect x="129.1" y="163.31" class="st6" width="59.14" height="21.09"/>
	<rect x="129.1" y="168.97" class="st7" width="59.14" height="15.43"/>
	<text transform="matrix(1 0 0 1 152.6718 175.9675)" class="st11 st4 st5">FM</text>
	<rect x="37.8" y="149.17" class="st3" width="560.81" height="4.63"/>
	<text transform="matrix(1 0 0 1 25.486 221.0287)" class="st3 st4 st12">ENV1/2</text>
	<rect x="61.21" y="208.06" class="st6" width="59.14" height="21.09"/>
	<rect x="61.21" y="213.71" class="st7" width="59.14" height="15.43"/>
	<text transform="matrix(1 0 0 1 63.7861 220.7103)" class="st8 st4 st5">EG1Attack</text>
	<rect x="196.99" y="208.06" class="st6" width="59.14" height="21.09"/>
	<rect x="196.99" y="213.71" class="st7" width="59.14" height="15.43"/>
	<text transform="matrix(1 0 0 1 199.0576 220.1273)" class="st8 st4 st12">EG1Sustain</text>
	<rect x="264.87" y="208.06" class="st6" width="59.14" height="21.09"/>
	<rect x="264.87" y="214.49" class="st7" width="59.14" height="14.66"/>
	<text transform="matrix(1 0 0 1 269.4433 220.3159)" class="st11 st4 st10">EG1Release</text>
	<rect x="332.76" y="208.06" class="st9" width="59.14" height="21.09"/>
	<rect x="332.76" y="213.71" class="st7" width="59.14" height="15.43"/>
	<text transform="matrix(1 0 0 1 335.329 220.7103)" class="st3 st4 st5">EG2Attack</text>
	<rect x="400.64" y="208.06" class="st9" width="59.14" height="21.09"/>
	<rect x="400.64" y="213.71" class="st7" width="59.14" height="15.43"/>
	<text transform="matrix(1 0 0 1 406.2147 220.7103)" class="st3 st4 st5">EG2Decay</text>
	<rect x="468.53" y="208.06" class="st9" width="59.14" height="21.09"/>
	<rect x="468.53" y="213.71" class="st7" width="59.14" height="15.43"/>
	<text transform="matrix(1 0 0 1 470.6004 220.1273)" class="st3 st4 st12">EG2Sustain</text>
	<rect x="539.47" y="208.06" class="st9" width="59.14" height="21.09"/>
	<rect x="539.47" y="214.99" class="st7" width="59.14" height="10.04"/>
	<text transform="matrix(1 0 0 1 541.5431 221.3989)" class="st3 st4 st12">EG2Release</text>
	<rect x="129.1" y="208.06" class="st6" width="59.14" height="21.09"/>
	<rect x="129.1" y="213.71" class="st7" width="59.14" height="15.43"/>
	<text transform="matrix(1 0 0 1 134.6718 220.7103)" class="st8 st4 st5">EG1Decay</text>
	<rect x="37.8" y="193.91" class="st3" width="560.81" height="4.63"/>
	<text transform="matrix(1 0 0 1 25.486 310.5144)" class="st3 st4 st5">LFO</text>
	<rect x="61.21" y="297.54" class="st6" width="59.14" height="21.09"/>
	<rect x="61.21" y="303.2" class="st7" width="59.14" height="15.43"/>
	<text transform="matrix(1 0 0 1 78.7861 310.196)" class="st8 st4 st5">Tune</text>
	<rect x="196.99" y="297.54" class="st6" width="59.14" height="21.09"/>
	<rect x="196.99" y="299.2" class="st7" width="59.14" height="15.43"/>
	<text transform="matrix(1 0 0 1 212.8076 305.613)"><tspan x="0" y="0" class="st8 st4 st12">Pulse </tspan><tspan x="0" y="9" class="st8 st4 st12">Width</tspan></text>
	<rect x="264.87" y="297.54" class="st6" width="59.14" height="21.09"/>
	<rect x="264.87" y="303.97" class="st7" width="59.14" height="14.66"/>
	<text transform="matrix(1 0 0 1 273.4433 310.9676)" class="st11 st4 st5">MODTune</text>
	<rect x="332.76" y="297.54" class="st9" width="59.14" height="21.09"/>
	<rect x="332.76" y="303.2" class="st7" width="59.14" height="15.43"/>
	<text transform="matrix(1 0 0 1 338.329 310.196)" class="st3 st4 st5">MODWidth</text>
	<rect x="400.64" y="297.54" class="st9" width="59.14" height="21.09"/>
	<rect x="400.64" y="303.2" class="st7" width="59.14" height="15.43"/>
	<text transform="matrix(1 0 0 1 406.2147 310.196)" class="st3 st4 st5">KEYSPLIT</text>
	<rect x="468.53" y="297.54" class="st9" width="59.14" height="21.09"/>
	<rect x="468.53" y="303.2" class="st7" width="59.14" height="15.43"/>
	<text transform="matrix(1 0 0 1 476.1004 309.613)" class="st3 st4 st12">GateSync</text>
	<rect x="539.47" y="297.54" class="st9" width="59.14" height="21.09"/>
	<rect x="539.47" y="304.47" class="st7" width="59.14" height="10.04"/>
	<text transform="matrix(1 0 0 1 549.7931 310.8846)" class="st3 st4 st12">MOD sel</text>
	<rect x="129.1" y="297.54" class="st6" width="59.14" height="21.09"/>
	<rect x="129.1" y="303.2" class="st7" width="59.14" height="15.43"/>
	<text transform="matrix(1 0 0 1 143.6718 310.196)" class="st8 st4 st5">Shape</text>
	<rect x="37.8" y="283.4" class="st3" width="560.81" height="4.63"/>
	<text transform="matrix(1 0 0 1 25.486 355.2572)" class="st3 st4 st5">VCF</text>
	<rect x="61.21" y="342.29" class="st6" width="59.14" height="21.09"/>
	<rect x="61.21" y="347.94" class="st7" width="59.14" height="15.43"/>
	<text transform="matrix(1 0 0 1 72.7861 354.9389)" class="st8 st4 st5">Cutoff</text>
	<rect x="196.99" y="342.29" class="st6" width="59.14" height="21.09"/>
	<rect x="196.99" y="347.94" class="st7" width="59.14" height="15.43"/>
	<text transform="matrix(1 0 0 1 202.5576 354.9389)" class="st8 st4 st5">VCF Type</text>
	<rect x="264.87" y="342.29" class="st6" width="59.14" height="21.09"/>
	<rect x="264.87" y="348.71" class="st7" width="59.14" height="14.66"/>
	<text transform="matrix(1 0 0 1 267.4433 355.7104)" class="st11 st4 st5">MODCutoff</text>
	<rect x="332.76" y="342.29" class="st9" width="59.14" height="21.09"/>
	<rect x="332.76" y="347.94" class="st7" width="59.14" height="15.43"/>
	<text transform="matrix(1 0 0 1 335.329 354.9389)" class="st3 st4 st5">LFOCutoff</text>
	<rect x="400.64" y="342.29" class="st9" width="59.14" height="21.09"/>
	<rect x="400.64" y="347.94" class="st7" width="59.14" height="15.43"/>
	<text transform="matrix(1 0 0 1 403.2147 354.9389)" class="st3 st4 st5">LFOVolume</text>
	<rect x="468.53" y="342.29" class="st9" width="59.14" height="21.09"/>
	<rect x="468.53" y="347.94" class="st7" width="59.14" height="15.43"/>
	<text transform="matrix(1 0 0 1 470.6004 354.3559)" class="st3 st4 st12">OSC1Bypass</text>
	<rect x="539.47" y="342.29" class="st9" width="59.14" height="21.09"/>
	<rect x="539.47" y="349.21" class="st7" width="59.14" height="10.04"/>
	<text transform="matrix(1 0 0 1 547.0431 355.6274)" class="st3 st4 st12">Key Sync</text>
	<rect x="129.1" y="342.29" class="st6" width="59.14" height="21.09"/>
	<rect x="129.1" y="347.94" class="st7" width="59.14" height="15.43"/>
	<text transform="matrix(1 0 0 1 131.6718 354.9389)" class="st8 st4 st5">Resonance</text>
	<rect x="37.8" y="328.14" class="st3" width="560.81" height="4.63"/>
	<rect x="37.8" y="760.94" class="st3" width="560.81" height="4.63"/>
	<text transform="matrix(1 0 0 1 25.486 393.0001)"><tspan x="0" y="0" class="st3 st4 st5">Key</tspan><tspan x="0" y="14.4" class="st3 st4 st5">Other</tspan></text>
	<rect x="61.21" y="387.03" class="st6" width="59.14" height="21.09"/>
	<rect x="61.21" y="389.69" class="st7" width="59.14" height="15.43"/>
	<text transform="matrix(1 0 0 1 70.7861 395.5157)"><tspan x="0" y="0" class="st8 st4 st10">VCF Pole</tspan><tspan x="5" y="9" class="st8 st4 st10">Linear</tspan></text>
	<rect x="196.99" y="387.03" class="st6" width="59.14" height="21.09"/>
	<rect x="196.99" y="392.69" class="st7" width="59.14" height="15.43"/>
	<text transform="matrix(1 0 0 1 211.5576 399.6818)" class="st8 st4 st5">GLIDE</text>
	<rect x="264.87" y="387.03" class="st6" width="59.14" height="21.09"/>
	<rect x="264.87" y="393.46" class="st7" width="59.14" height="14.66"/>
	<text transform="matrix(1 0 0 1 266.9433 399.8703)" class="st11 st4 st12">Bend Range</text>
	<rect x="332.76" y="387.03" class="st9" width="59.14" height="21.09"/>
	<rect x="332.76" y="392.69" class="st7" width="59.14" height="15.43"/>
	<text transform="matrix(1 0 0 1 338.329 399.6818)" class="st3 st4 st5">MOD Mode</text>
	<rect x="400.64" y="387.03" class="st9" width="59.14" height="21.09"/>
	<rect x="400.64" y="389.69" class="st7" width="59.14" height="15.43"/>
	<text transform="matrix(1 0 0 1 408.2147 396.0988)"><tspan x="0" y="0" class="st3 st4 st12">Velocity</tspan><tspan x="13.75" y="9" class="st3 st4 st12"> SW</tspan></text>
	<rect x="468.53" y="387.03" class="st9" width="59.14" height="21.09"/>
	<rect x="468.53" y="389.69" class="st7" width="59.14" height="15.43"/>
	<text transform="matrix(1 0 0 1 476.1004 396.0988)"><tspan x="0" y="0" class="st3 st4 st12">MONO/DUO</tspan><tspan x="11" y="9" class="st3 st4 st12">POLY</tspan></text>
	<rect x="539.47" y="387.03" class="st9" width="59.14" height="21.09"/>
	<rect x="539.47" y="393.96" class="st7" width="59.14" height="10.04"/>
	<text transform="matrix(1 0 0 1 547.0431 400.3703)" class="st3 st4 st12">LFO Sync</text>
	<rect x="129.1" y="387.03" class="st6" width="59.14" height="21.09"/>
	<rect x="129.1" y="388.69" class="st7" width="59.14" height="15.43"/>
	<text transform="matrix(1 0 0 1 150.4218 395.0988)"><tspan x="0" y="0" class="st8 st4 st12">VCF</tspan><tspan x="-11" y="9" class="st8 st4 st12">Mod Sel</tspan></text>
	<rect x="37.8" y="372.89" class="st3" width="560.81" height="4.63"/>
	<text transform="matrix(1 0 0 1 25.486 444.7213)" class="st3 st4 st5">FM</text>
	<rect x="61.21" y="431.77" class="st6" width="59.14" height="21.09"/>
	<rect x="61.21" y="434.43" class="st7" width="59.14" height="15.43"/>
	<text transform="matrix(1 0 0 1 85.7861 440.2586)"><tspan x="0" y="0" class="st8 st4 st10">FM</tspan><tspan x="-17.5" y="9" class="st8 st4 st10">Algorithm</tspan></text>
	<rect x="196.99" y="431.77" class="st6" width="59.14" height="21.09"/>
	<rect x="196.99" y="437.43" class="st7" width="59.14" height="15.43"/>
	<text transform="matrix(1 0 0 1 199.5576 444.4246)" class="st8 st4 st5">OP-A FREQ</text>
	<rect x="264.87" y="431.77" class="st6" width="59.14" height="21.09"/>
	<rect x="264.87" y="438.2" class="st7" width="59.14" height="14.66"/>
	<text transform="matrix(1 0 0 1 272.4433 444.6132)" class="st11 st4 st12">OP-B AMP</text>
	<rect x="332.76" y="431.77" class="st9" width="59.14" height="21.09"/>
	<rect x="400.64" y="431.77" class="st9" width="59.14" height="21.09"/>
	<rect x="468.53" y="431.77" class="st9" width="59.14" height="21.09"/>
	<rect x="539.47" y="431.77" class="st9" width="59.14" height="21.09"/>
	<rect x="129.1" y="431.77" class="st6" width="59.14" height="21.09"/>
	<rect x="129.1" y="437.43" class="st7" width="59.14" height="12.1"/>
	<text transform="matrix(1 0 0 1 134.6718 444.4246)" class="st8 st4 st5">OP-A AMP</text>
	<rect x="37.8" y="417.63" class="st3" width="560.81" height="4.63"/>
	<text transform="matrix(1 0 0 1 14.1715 258.457)"><tspan x="0" y="0" class="st3 st4 st12">OSC</tspan><tspan x="0" y="13.2" class="st3 st4 st12">Switches</tspan></text>
	<rect x="61.21" y="252.8" class="st6" width="59.14" height="21.09"/>
	<rect x="61.21" y="255.46" class="st7" width="59.14" height="15.43"/>
	<text transform="matrix(1 0 0 1 79.7861 261.8702)"><tspan x="0" y="0" class="st8 st4 st12">OSC1</tspan><tspan x="-8.25" y="9" class="st8 st4 st12">ENV sel</tspan></text>
	<rect x="196.99" y="252.8" class="st6" width="59.14" height="21.09"/>
	<rect x="264.87" y="252.8" class="st6" width="59.14" height="21.09"/>
	<rect x="332.76" y="252.8" class="st9" width="59.14" height="21.09"/>
	<rect x="400.64" y="252.8" class="st9" width="59.14" height="21.09"/>
	<rect x="468.53" y="252.8" class="st9" width="59.14" height="21.09"/>
	<rect x="539.47" y="252.8" class="st9" width="59.14" height="21.09"/>
	<rect x="129.1" y="252.8" class="st6" width="59.14" height="21.09"/>
	<rect x="37.8" y="238.66" class="st3" width="560.81" height="4.63"/>
	<rect x="291.81" y="38.95" class="st13" width="49.93" height="6.09"/>
	<rect x="291.81" y="38.95" class="st14" width="24.97" height="6.09"/>
	<text transform="matrix(1 0 0 1 312.8188 37.3615)" class="st3 st4 st15">64</text>
	<rect x="43.97" y="33.46" class="st3" width="8.74" height="8.74"/>
	<rect x="129.1" y="255.46" class="st7" width="59.14" height="15.43"/>
	<text transform="matrix(1 0 0 1 147.6718 261.8702)"><tspan x="0" y="0" class="st8 st4 st12">OSC1</tspan><tspan x="-13.75" y="9" class="st8 st4 st12">Wide Tune</tspan></text>
	<rect x="196.99" y="255.46" class="st7" width="59.14" height="15.43"/>
	<text transform="matrix(1 0 0 1 215.5576 261.8702)"><tspan x="0" y="0" class="st8 st4 st12">OSC1</tspan><tspan x="-8.25" y="9" class="st8 st4 st12">MOD sel</tspan></text>
	<rect x="264.87" y="255.46" class="st7" width="59.14" height="15.43"/>
	<text transform="matrix(1 0 0 1 283.4433 261.8702)"><tspan x="0" y="0" class="st8 st4 st12">ENV1</tspan><tspan x="-5.5" y="9" class="st8 st4 st12">INV SW</tspan></text>
	<rect x="332.76" y="255.46" class="st7" width="59.14" height="15.43"/>
	<text transform="matrix(1 0 0 1 351.329 261.8702)"><tspan x="0" y="0" class="st3 st4 st12">OSC2</tspan><tspan x="-8.25" y="9" class="st3 st4 st12">ENV sel</tspan></text>
	<rect x="400.64" y="255.46" class="st7" width="59.14" height="15.43"/>
	<text transform="matrix(1 0 0 1 419.2147 261.8702)"><tspan x="0" y="0" class="st3 st4 st12">OSC2</tspan><tspan x="-13.75" y="9" class="st3 st4 st12">Wide tune</tspan></text>
	<rect x="468.53" y="255.46" class="st7" width="59.14" height="15.43"/>
	<text transform="matrix(1 0 0 1 487.1004 261.8702)"><tspan x="0" y="0" class="st3 st4 st12">OSC2</tspan><tspan x="-8.25" y="9" class="st3 st4 st12">MOD sel</tspan></text>
	<rect x="539.47" y="255.46" class="st7" width="59.14" height="15.43"/>
	<text transform="matrix(1 0 0 1 558.0431 261.8702)"><tspan x="0" y="0" class="st3 st4 st12">ENV2</tspan><tspan x="-5.5" y="9" class="st3 st4 st12">INV SW</tspan></text>
	<rect x="332.76" y="437.43" class="st7" width="59.14" height="15.43"/>
	<text transform="matrix(1 0 0 1 335.329 444.4246)" class="st3 st4 st5">OP-B FREQ</text>
	<rect x="400.64" y="437.43" class="st7" width="59.14" height="15.43"/>
	<text transform="matrix(1 0 0 1 406.2147 444.4246)" class="st3 st4 st5">OP-C AMP</text>
	<rect x="468.53" y="437.43" class="st7" width="59.14" height="15.43"/>
	<text transform="matrix(1 0 0 1 471.1004 444.4246)" class="st3 st4 st5">OP-C FREQ</text>
	<rect x="539.47" y="437.43" class="st7" width="59.14" height="15.43"/>
	<text transform="matrix(1 0 0 1 545.0431 444.4246)" class="st3 st4 st5">OP-D AMP</text>
	<text transform="matrix(1 0 0 1 26.4861 594.8423)"><tspan x="0" y="0" class="st3 st4 st5">SEQ</tspan><tspan x="0" y="9" class="st3 st4 st5">PLAY</tspan></text>
	<rect x="61.21" y="585.52" class="st6" width="59.14" height="21.09"/>
	<rect x="61.21" y="588.18" class="st7" width="59.14" height="15.43"/>
	<text transform="matrix(1 0 0 1 80.7861 594.0082)"><tspan x="0" y="0" class="st8 st4 st10">Play</tspan><tspan x="0" y="9" class="st8 st4 st10">Stop</tspan></text>
	<rect x="196.99" y="585.52" class="st6" width="59.14" height="21.09"/>
	<rect x="196.99" y="588.18" class="st7" width="59.14" height="15.43"/>
	<text transform="matrix(1 0 0 1 212.8076 594.5912)"><tspan x="0" y="0" class="st8 st4 st12">Width</tspan><tspan x="-8.25" y="9" class="st8 st4 st12">(Length)</tspan></text>
	<rect x="264.87" y="585.52" class="st6" width="59.14" height="21.09"/>
	<rect x="264.87" y="591.95" class="st7" width="59.14" height="14.66"/>
	<text transform="matrix(1 0 0 1 266.9433 598.3627)" class="st11 st4 st12">Randomness</text>
	<rect x="332.76" y="585.52" class="st16" width="59.14" height="21.09"/>
	<rect x="400.64" y="585.52" class="st16" width="59.14" height="21.09"/>
	<rect x="468.53" y="585.52" class="st16" width="59.14" height="21.09"/>
	<rect x="539.47" y="585.52" class="st16" width="59.14" height="21.09"/>
	<rect x="129.1" y="585.52" class="st6" width="59.14" height="21.09"/>
	<rect x="129.1" y="591.18" class="st7" width="59.14" height="12.1"/>
	<text transform="matrix(1 0 0 1 131.6718 598.1742)" class="st8 st4 st5">Transpose</text>
	<rect x="332.76" y="592.18" class="st7" width="59.14" height="15.43"/>
	<text transform="matrix(1 0 0 1 334.829 598.0082)" class="st3 st4 st10">Arpeggiator</text>
	<text transform="matrix(1 0 0 1 19.2684 483.2466)"><tspan x="0" y="0" class="st3 st4 st12">ENV3/4</tspan><tspan x="0" y="13.2" class="st3 st4 st12">Other</tspan></text>
	<rect x="61.21" y="476.51" class="st6" width="59.14" height="21.09"/>
	<rect x="61.21" y="479.17" class="st7" width="59.14" height="17.1"/>
	<text transform="matrix(1 0 0 1 75.7861 485.002)"><tspan x="0" y="0" class="st8 st4 st10">OSC1/2</tspan><tspan x="-2.5" y="9" class="st8 st4 st10">Keysync</tspan></text>
	<rect x="196.99" y="476.51" class="st6" width="59.14" height="21.09"/>
	<rect x="196.99" y="482.17" class="st7" width="59.14" height="15.43"/>
	<text transform="matrix(1 0 0 1 202.5576 489.1675)" class="st8 st4 st5">Clipping</text>
	<rect x="264.87" y="476.51" class="st6" width="59.14" height="21.09"/>
	<rect x="264.87" y="479.51" class="st7" width="59.14" height="18.09"/>
	<text transform="matrix(1 0 0 1 283.4433 485.9278)"><tspan x="0" y="0" class="st11 st4 st12">ENV3</tspan><tspan x="-16.5" y="9" class="st11 st4 st12">Connection</tspan></text>
	<rect x="332.76" y="476.51" class="st9" width="59.14" height="21.09"/>
	<rect x="400.64" y="476.51" class="st9" width="59.14" height="21.09"/>
	<rect x="468.53" y="476.51" class="st9" width="59.14" height="21.09"/>
	<rect x="539.47" y="476.51" class="st9" width="59.14" height="21.09"/>
	<rect x="129.1" y="476.51" class="st6" width="59.14" height="21.09"/>
	<rect x="129.1" y="478.51" class="st7" width="59.14" height="17.76"/>
	<text transform="matrix(1 0 0 1 139.4218 484.9277)"><tspan x="0" y="0" class="st8 st4 st12">FM FREQ</tspan><tspan x="8.25" y="9" class="st8 st4 st12">SNAP</tspan></text>
	<rect x="37.8" y="462.37" class="st3" width="560.81" height="4.63"/>
	<rect x="37.8" y="617.58" class="st3" width="560.81" height="4.63"/>
	<rect x="37.8" y="667.24" class="st3" width="560.81" height="4.63"/>
	<rect x="332.76" y="482.17" class="st7" width="59.14" height="15.43"/>
	<text transform="matrix(1 0 0 1 335.329 489.1675)" class="st3 st4 st5">EG3Attack</text>
	<rect x="400.64" y="482.17" class="st7" width="59.14" height="15.43"/>
	<text transform="matrix(1 0 0 1 406.2147 489.1675)" class="st3 st4 st5">EG3Decay</text>
	<rect x="468.53" y="482.17" class="st7" width="59.14" height="15.43"/>
	<text transform="matrix(1 0 0 1 470.6004 488.5845)" class="st3 st4 st12">EG3Sustain</text>
	<rect x="539.47" y="483.44" class="st7" width="59.14" height="10.04"/>
	<text transform="matrix(1 0 0 1 541.5431 489.856)" class="st3 st4 st12">EG3Release</text>
	<text transform="matrix(1 0 0 1 318.1892 63.024)" class="st3 st4 st17">PRM</text>
	<text transform="matrix(1 0 0 1 314.6892 574.3682)" class="st3 st4 st17">PLAY</text>
	<rect x="400.64" y="589.18" class="st7" width="59.14" height="15.43"/>
	<text transform="matrix(1 0 0 1 415.2147 595.0077)"><tspan x="0" y="0" class="st3 st4 st10">Looper</tspan><tspan x="0" y="9" class="st3 st4 st10">Record</tspan></text>
	<rect x="468.53" y="589.18" class="st7" width="59.14" height="15.43"/>
	<text transform="matrix(1 0 0 1 483.1004 595.0077)"><tspan x="0" y="0" class="st3 st4 st10">Looper</tspan><tspan x="5" y="9" class="st3 st4 st10">Play</tspan></text>
	<rect x="539.47" y="589.18" class="st7" width="59.14" height="15.43"/>
	<text transform="matrix(1 0 0 1 554.0431 595.0077)"><tspan x="0" y="0" class="st3 st4 st10">Looper</tspan><tspan x="-5" y="9" class="st3 st4 st10">Stop/Del</tspan></text>
	<text transform="matrix(1 0 0 1 11.5719 698.3914)" class="st3 st4 st5">GRANULAR</text>
	<rect x="61.21" y="683.84" class="st6" width="59.14" height="21.09"/>
	<rect x="61.21" y="690.02" class="st7" width="59.14" height="8.71"/>
	<text transform="matrix(1 0 0 1 81.7861 697.017)" class="st8 st4 st5">REC</text>
	<rect x="196.99" y="683.84" class="st6" width="59.14" height="21.09"/>
	<rect x="197.5" y="689.53" class="st7" width="59.14" height="11.43"/>
	<text transform="matrix(1 0 0 1 203.0718 696.5305)" class="st8 st4 st5">File pos</text>
	<rect x="264.87" y="683.84" class="st6" width="59.14" height="21.09"/>
	<rect x="264.87" y="690.26" class="st7" width="59.14" height="14.66"/>
	<text transform="matrix(1 0 0 1 276.4433 697.26)" class="st11 st4 st5">Length</text>
	<rect x="332.76" y="683.84" class="st16" width="59.14" height="21.09"/>
	<rect x="400.64" y="683.84" class="st16" width="59.14" height="21.09"/>
	<rect x="468.53" y="683.84" class="st16" width="59.14" height="21.09"/>
	<rect x="539.47" y="683.84" class="st16" width="59.14" height="21.09"/>
	<rect x="129.1" y="683.84" class="st6" width="59.14" height="21.09"/>
	<rect x="332.76" y="690.49" class="st7" width="59.14" height="15.43"/>
	<text transform="matrix(1 0 0 1 347.329 697.4885)" class="st3 st4 st5">Speed</text>
	<rect x="400.13" y="690.65" class="st7" width="59.14" height="15.43"/>
	<text transform="matrix(1 0 0 1 414.7004 697.6443)" class="st3 st4 st5">Grain</text>
	<rect x="468.53" y="691.68" class="st7" width="59.14" height="15.43"/>
	<text transform="matrix(1 0 0 1 480.1004 698.6729)" class="st3 st4 st5">Detune</text>
	<rect x="539.47" y="691.51" class="st7" width="59.14" height="15.43"/>
	<text transform="matrix(1 0 0 1 544.2931 697.9251)" class="st3 st4 st12">CONN MODE</text>
	<text transform="matrix(1 0 0 1 21.4861 643.4995)"><tspan x="0" y="0" class="st3 st4 st5">SEQ</tspan><tspan x="0" y="9" class="st3 st4 st5">CONFIG</tspan></text>
	<rect x="61.21" y="634.18" class="st6" width="59.14" height="21.09"/>
	<rect x="61.21" y="640.84" class="st7" width="59.14" height="13.1"/>
	<text transform="matrix(1 0 0 1 81.7861 647.8313)" class="st8 st4 st5">BPM</text>
	<rect x="196.99" y="634.18" class="st6" width="59.14" height="21.09"/>
	<rect x="196.99" y="640.84" class="st7" width="59.14" height="14.43"/>
	<text transform="matrix(1 0 0 1 211.5576 647.8313)" class="st8 st4 st5">SCALE</text>
	<rect x="264.87" y="634.18" class="st6" width="59.14" height="21.09"/>
	<rect x="264.87" y="640.61" class="st7" width="59.14" height="14.66"/>
	<text transform="matrix(1 0 0 1 266.9433 647.0198)" class="st11 st4 st12">LOOP Count</text>
	<rect x="332.76" y="634.18" class="st16" width="59.14" height="21.09"/>
	<rect x="400.64" y="634.18" class="st16" width="59.14" height="21.09"/>
	<rect x="468.53" y="634.18" class="st16" width="59.14" height="21.09"/>
	<rect x="539.47" y="634.18" class="st16" width="59.14" height="21.09"/>
	<rect x="129.1" y="634.18" class="st6" width="59.14" height="21.09"/>
	<rect x="129.1" y="640.84" class="st7" width="59.14" height="12.1"/>
	<text transform="matrix(1 0 0 1 149.6718 647.8313)" class="st8 st4 st5">KEY</text>
	<text transform="matrix(1 0 0 1 509.4202 779.1949)" class="st3 st4 st5">2020 NUNOMO LLC</text>
	<rect x="128.07" y="686.16" class="st7" width="59.14" height="15.43"/>
	<text transform="matrix(1 0 0 1 147.6433 691.9863)"><tspan x="0" y="0" class="st8 st4 st10">Play</tspan><tspan x="0" y="9" class="st8 st4 st10">Stop</tspan></text>
</g>
</svg>
